# xmcd
#
# Track frame offsets: 
#        150
#        28760
#        52762
#        74885
#        98534
#        121341
#        141354
#        166709
#        196037
#        215606
#        235532
#        250101
#        276712
#        300442
#
# Disc length: 4484 seconds
#
# Revision: 0
# Processed by: cddbd v1.5.2PL0 Copyright (c) Steve Scherf et al.
# Submitted via: ExactAudioCopyFreeDBPlugin 1.0
#
DISCID=c111820e
DTITLE=Shri - Corner on the Rain
DYEAR=2002
DGENRE=Blues
TTITLE0=Million Miles - Dylan
TTITLE1=EWhat you need me for
TTITLE2=Have you
TTITLE3=Ache
TTITLE4=Texas Flood
TTITLE5=Cannot hide from the Blues
TTITLE6=Corner on the Rain
TTITLE7=Gone
TTITLE8=Cadillac
TTITLE9=Better off single
TTITLE10=You almost get me that time
TTITLE11=Over
TTITLE12=Service
TTITLE13=SWhen the Levee brakes
EXTD=
EXTT0=
EXTT1=
EXTT2=
EXTT3=
EXTT4=
EXTT5=
EXTT6=
EXTT7=
EXTT8=
EXTT9=
EXTT10=
EXTT11=
EXTT12=
EXTT13=
PLAYORDER=
